<svg width="927" height="682" viewBox="0 0 927 682" fill="none" xmlns="http://www.w3.org/2000/svg">
<g clip-path="url(#clip0)">
<path d="M248.263 598.904H934.607V0.314209H337.896C282.427 0.314209 237.041 45.6983 237.041 101.17C237.041 131.573 212.166 156.448 181.763 156.448H119.397C84.2978 156.511 55.6012 185.249 55.6012 220.364C55.6012 255.52 84.365 284.279 119.519 284.279H133.98C148.444 284.279 160.272 296.115 160.272 310.574C160.272 325.033 148.444 336.868 133.98 336.868H130.537C58.478 336.868 -0.4823 395.826 -0.4823 467.886C-0.4823 539.946 58.4763 598.904 130.537 598.904H248.263Z" fill="#EAE4FD"/>
<path d="M803.059 604.769H934.607V397.622H24.0773C8.63722 419.117 -0.4823 445.419 -0.4823 473.751C-0.4823 545.811 58.4763 604.769 130.537 604.769H248.263H803.059Z" fill="#A092CE"/>
<path d="M40.7223 378.588C27.3123 391.256 16.5567 406.707 9.40137 423.992H935.78V378.588H40.7223Z" fill="#C0B4E7"/>
<path fill-rule="evenodd" clip-rule="evenodd" d="M692.775 224.166C692.49 223.868 692.503 223.394 692.802 223.111C693.097 222.824 693.573 222.837 693.857 223.137C694.056 223.344 763.767 295.048 683.927 374.889C683.637 375.183 683.161 375.183 682.869 374.889C682.575 374.597 682.575 374.12 682.869 373.826C761.668 295.028 692.969 224.373 692.775 224.166Z" fill="#2B1535"/>
<path fill-rule="evenodd" clip-rule="evenodd" d="M686.372 114.905C649.201 145.918 667.307 202.652 697.477 232.567C732.377 267.175 745.069 322.545 683.2 364.842C621.33 407.14 717.308 442.51 754.586 395.603C791.866 348.692 805.574 234.786 802.972 206.418C800.374 178.053 801.384 165.66 779.968 153.356C758.554 141.049 686.372 114.905 686.372 114.905Z" fill="#2B1535"/>
<path fill-rule="evenodd" clip-rule="evenodd" d="M593.56 314.878C593.56 314.878 588.208 307.739 587.116 306.649C586.026 305.558 578.888 305.36 574.623 305.063C570.359 304.764 569.568 308.632 569.468 310.218C569.369 311.804 569.171 313.788 569.171 313.788C569.171 313.788 544.625 315.818 542.842 316.216C541.058 316.613 538.679 323.454 538.181 324.843C537.686 326.23 538.627 329.403 540.462 329.552C542.296 329.699 544.625 328.609 545.37 327.418C546.114 326.23 546.758 327.867 546.758 327.867C546.758 327.867 544.875 331.039 544.775 333.319C544.677 335.6 545.173 336.79 547.006 337.581C548.84 338.376 551.716 338.922 551.716 338.922C551.716 338.922 551.815 342.688 552.459 344.077C553.104 345.465 553.302 346.061 556.128 346.901C558.955 347.746 568.919 350.076 568.919 350.076L593.56 314.878Z" fill="#EA5153"/>
<path fill-rule="evenodd" clip-rule="evenodd" d="M551.621 339.511C551.294 339.458 551.07 339.152 551.125 338.826C551.175 338.499 551.48 338.28 551.806 338.331L556.595 339.094C556.917 339.145 557.139 339.45 557.09 339.777C557.037 340.103 556.732 340.325 556.405 340.271L551.621 339.511Z" fill="#CC3C49"/>
<path fill-rule="evenodd" clip-rule="evenodd" d="M810.346 555.458C810.346 555.458 803.999 604.769 762.753 604.769C721.504 604.769 733.403 604.769 716.348 604.769C699.295 604.769 660.031 561.011 629.89 522.937C599.748 484.863 585.438 457.897 585.438 457.897C578.146 470.302 500.228 532.498 481.988 548.714C478.421 551.887 462.92 569.934 460.144 569.934C460.144 569.934 439.521 571.318 424.055 560.611C424.055 560.611 428.977 539.686 430.003 538.407C476.394 480.49 528.072 415.312 553.695 389.392C579.316 363.477 605.594 377.779 665.084 419.821C724.573 461.858 810.346 555.458 810.346 555.458Z" fill="#192A56"/>
<path fill-rule="evenodd" clip-rule="evenodd" d="M533.364 301.265L534.806 299.712C535.936 298.502 537.842 298.431 539.054 299.554L583.605 340.958C584.815 342.086 584.886 343.994 583.758 345.206L582.316 346.759C581.187 347.968 579.28 348.038 578.068 346.917L533.522 305.513C532.307 304.384 532.24 302.476 533.364 301.265Z" fill="#2B1535"/>
<path fill-rule="evenodd" clip-rule="evenodd" d="M628.448 338.517C628.448 338.517 623.016 336.028 621.131 334.84C619.248 333.649 604.772 315.307 602.889 314.514C601.004 313.721 587.917 312.332 586.034 312.332C584.151 312.332 581.373 314.118 580.481 316.1C579.588 318.085 578.103 323.735 578.103 323.735C578.103 323.735 559.177 324.214 553.786 324.347L548.229 319.182C548.229 319.182 546.181 319.889 545.387 321.03C544.594 322.17 544.544 325.59 544.642 327.325C544.743 329.059 547.96 333.324 548.853 334.264C549.746 335.207 551.976 335.753 553.612 336C553.612 336 553.557 340.115 556.929 341.502C560.296 342.891 564.411 344.726 564.411 344.726C564.411 344.726 564.61 348.198 567.089 349.782C569.568 351.368 576.21 356.426 576.21 356.426C576.21 356.426 578.589 357.368 580.176 357.269C580.176 357.269 582.06 361.281 585.133 362.569C588.208 363.858 599.311 368.722 600.898 369.116C602.485 369.51 608.66 368.389 614.696 371.877C620.728 375.363 621.519 375.558 621.519 375.558L632.824 344.424L628.448 338.517Z" fill="#F89B6F"/>
<path fill-rule="evenodd" clip-rule="evenodd" d="M430.309 600.329C430.309 600.329 338.523 602.518 334.965 595.957C334.965 595.957 334.965 590.702 334.965 587.202C334.965 583.705 339.156 578.673 350.566 575.392C361.977 572.109 386.319 565.761 393.798 563.464C401.277 561.168 422.704 537.762 425.745 534.918C428.789 532.077 442.989 541.263 446.031 542.792C449.073 544.327 447.044 548.044 445.522 552.419C444.002 556.793 430.309 600.329 430.309 600.329Z" fill="#D11E3F"/>
<path fill-rule="evenodd" clip-rule="evenodd" d="M334.965 604.769H481.79C483.529 604.769 484.952 603.96 484.952 602.967V597.759C484.952 596.766 483.529 595.954 481.79 595.954H334.965C333.226 595.954 331.802 596.766 331.802 597.759V602.967C331.802 603.96 333.226 604.769 334.965 604.769Z" fill="#F2CBD2"/>
<path fill-rule="evenodd" clip-rule="evenodd" d="M334.965 604.772H384.861C386.6 604.772 388.023 603.96 388.023 602.967V597.759C388.023 596.766 386.6 595.954 384.861 595.954H334.965C333.224 595.954 331.801 596.766 331.801 597.759V602.967C331.801 603.96 333.224 604.772 334.965 604.772Z" fill="#F6809D"/>
<path fill-rule="evenodd" clip-rule="evenodd" d="M399.882 566.312C400.388 567.841 404.954 575.5 401.785 577.36C398.615 579.218 388.472 585.889 382.767 585.889C377.061 585.889 365.017 585.889 349.932 585.889C334.846 585.889 338.33 581.349 338.33 581.349C335.969 583.411 334.965 585.488 334.965 587.202C334.965 590.702 334.965 595.957 334.965 595.957H481.785C481.785 595.957 487.999 589.718 487.999 575.062C487.999 560.403 488.822 551.981 486.349 549.63C483.876 547.281 482.165 548.48 482.165 548.48C470.756 557.012 456.935 550.884 449.706 547.497C448.938 547.134 448.209 546.769 447.512 546.413C441.65 543.388 438.057 540.689 432.846 543.23C427.014 546.073 406.476 558.653 403.179 560.623C399.882 562.594 399.377 564.777 399.882 566.312Z" fill="#D11E3F"/>
<path fill-rule="evenodd" clip-rule="evenodd" d="M334.965 589.368V595.957H481.788C481.788 595.957 487.999 589.718 487.999 575.062C487.999 560.403 488.822 551.981 486.349 549.63C486.684 554.327 483.795 559.585 478.72 559.585C473.646 559.585 460.197 559.585 449.464 559.585C438.73 559.585 436.562 564.543 436.562 564.543C436.562 564.543 431.141 573.802 427.238 580.35C423.334 586.897 416.831 591.372 412.059 591.372C407.287 591.372 349.264 591.372 341.46 591.372C338.127 591.372 336.142 590.436 334.965 589.368Z" fill="#EE244D"/>
<path fill-rule="evenodd" clip-rule="evenodd" d="M412.902 547.961C413.732 547.143 414.55 546.324 415.348 545.528L423.334 550.675C423.93 551.059 424.146 551.771 423.811 552.256C423.476 552.745 422.718 552.83 422.119 552.442L415.493 548.175L418.207 554.913C418.453 555.522 418.13 556.121 417.492 556.249C416.849 556.377 416.13 555.983 415.884 555.375L412.902 547.961ZM406.529 554.05L412.985 558.21C413.582 558.595 414.339 558.512 414.675 558.024C415.009 557.538 414.796 556.826 414.197 556.441L408.149 552.544C407.606 553.05 407.065 553.554 406.529 554.05ZM404.599 555.794C405.204 555.253 405.819 554.7 406.436 554.131L409.07 560.681C409.316 561.29 408.997 561.887 408.354 562.015C407.713 562.145 406.995 561.751 406.751 561.143L404.599 555.794ZM431.255 546.676C431.854 547.063 432.611 546.977 432.946 546.489C433.281 546.003 433.067 545.291 432.468 544.907L423.245 538.959L422.813 537.891L420.819 539.949L421.246 540.224L425.021 549.608C425.267 550.216 425.983 550.611 426.626 550.481C427.266 550.353 427.588 549.755 427.342 549.147L424.63 542.407L431.255 546.676Z" fill="#F03562"/>
<path fill-rule="evenodd" clip-rule="evenodd" d="M641.975 343.503L632.449 338.066C632.449 338.066 630.464 337.57 629.077 338.265C629.077 338.265 626.698 362.655 615.295 371.877C615.295 371.877 614.997 373.463 615.84 374.257C616.683 375.049 626.899 382.171 626.899 382.171C626.899 382.171 631.158 382.933 635.125 380.354C639.091 377.776 648.015 360.624 647.816 358.442C647.618 356.262 641.975 343.503 641.975 343.503Z" fill="#E19824"/>
<path fill-rule="evenodd" clip-rule="evenodd" d="M836.463 555.458C836.463 555.458 830.116 604.769 788.87 604.769C747.625 604.769 759.523 604.769 742.47 604.769C725.416 604.769 686.15 561.011 656.007 522.937C625.867 484.863 611.555 457.897 611.555 457.897C604.264 470.302 526.347 532.498 508.107 548.714C504.538 551.887 489.038 569.934 486.261 569.934C486.261 569.934 465.639 571.318 450.172 560.611C450.172 560.611 455.096 539.686 456.122 538.407C502.513 480.49 554.191 415.312 579.812 389.392C605.438 363.477 631.712 377.779 691.202 419.821C750.69 461.858 836.463 555.458 836.463 555.458Z" fill="#273C75"/>
<path fill-rule="evenodd" clip-rule="evenodd" d="M746.439 306.4L742.362 302.942C742.362 302.942 719.868 351.612 715.109 379.373C710.35 407.137 731.37 403.964 731.37 403.964C731.37 403.964 746.439 395.24 746.836 384.132C747.232 373.029 746.439 306.4 746.439 306.4Z" fill="#E19824"/>
<path fill-rule="evenodd" clip-rule="evenodd" d="M769.463 140.794C769.463 140.794 791.477 175.614 824.651 189.721C824.651 189.721 828.449 213.846 811.977 224.113C795.506 234.378 770.149 226.06 770.149 226.06L753.425 201.465L769.463 140.794Z" fill="#F89B6F"/>
<path fill-rule="evenodd" clip-rule="evenodd" d="M757.376 207.274L754.735 203.39C756.996 194.139 760.9 177.996 760.9 176.871C760.9 175.284 771.408 160.213 771.408 160.213L779.935 160.411L779.738 193.923L757.376 207.274Z" fill="#EA5153"/>
<path fill-rule="evenodd" clip-rule="evenodd" d="M850.971 249.703C850.971 249.703 914.427 362.512 857.317 532.08C857.317 532.08 851.368 547.153 852.161 559.841C852.955 572.533 809.324 579.273 789.892 545.561C770.459 511.848 783.547 513.04 762.131 492.022C740.713 471.002 707.004 445.224 707.004 445.224C707.004 445.224 716.118 428.565 734.36 425.392C734.36 425.392 734.36 414.685 740.508 412.502C740.508 412.502 730.394 376.017 731.189 351.032C731.98 326.045 746.253 283.212 770.446 251.486C770.446 251.486 773.42 242.162 769.652 235.022C765.886 227.884 765.29 225.108 767.076 221.539C767.076 221.539 774.214 221.539 780.164 217.175C786.111 212.813 800.984 212.416 800.984 212.416L850.971 249.703Z" fill="#FBC531"/>
<path fill-rule="evenodd" clip-rule="evenodd" d="M830.526 570.194C816.922 569.79 800.078 563.242 789.892 545.561C770.459 511.849 783.547 513.04 762.131 492.022C740.713 471.002 707.004 445.224 707.004 445.224C707.004 445.224 716.118 428.566 734.36 425.392C734.36 425.392 734.36 414.685 740.508 412.502L740.36 411.957L788.284 428.814L839.048 354.252L847.406 377.135C847.406 377.135 812.873 482.75 805.735 504.958C799.249 525.132 798.006 553.811 830.526 570.194Z" fill="#E19824"/>
<path fill-rule="evenodd" clip-rule="evenodd" d="M774.937 309.594C763.72 350.394 766.608 394.07 766.608 394.07C766.608 394.07 762.542 391.788 762.246 397.836C744.096 377.574 703.565 381.154 665.769 343.107C658.397 335.678 641.975 343.503 641.975 343.503C641.975 343.503 645.936 365.514 626.899 382.171C626.899 382.171 620.553 405.173 657.437 425.799C694.32 446.42 733.192 452.368 754.603 467.44C776.021 482.509 793.47 479.735 806.16 466.249C818.851 452.765 862.081 357.984 856.925 322.284C848.368 263.043 786.157 268.798 774.937 309.594Z" fill="#FBC748"/>
<path fill-rule="evenodd" clip-rule="evenodd" d="M766.679 364.765C783.273 367.075 813.514 372.803 844.321 386.264C843.004 390.025 841.623 393.785 840.202 397.519C811.109 384.689 782.48 379.107 766.303 376.789C766.349 373.194 766.46 369.149 766.679 364.765ZM768.642 342.053C768.129 346.138 767.72 350.125 767.398 353.952C782.625 355.865 815.052 361.387 847.716 376.157C848.967 372.251 850.132 368.386 851.186 364.601C817.546 349.666 784.365 344.023 768.642 342.053Z" fill="white"/>
<path fill-rule="evenodd" clip-rule="evenodd" d="M691.161 115.213C691.161 115.213 679.473 125.456 687.55 147.114C695.622 168.773 701.476 177.468 693.721 187.379C693.721 187.379 692.731 189.156 694.122 190.31C695.511 191.468 700.555 193.435 703.437 194.973C706.326 196.507 716.695 212.069 723.029 216.909C729.362 221.75 743.292 217.92 754.958 204.357C766.63 190.794 775.822 157.452 771.773 144.185C767.724 130.924 714.432 110.015 691.161 115.213Z" fill="#F89B6F"/>
<path fill-rule="evenodd" clip-rule="evenodd" d="M740.045 146.425C740.045 146.425 717.724 154.726 697.955 141.98C678.189 129.233 670.793 110.451 687.98 93.76C705.17 77.0722 745.803 55.3998 780.459 80.0297C815.117 104.661 798.469 141.938 849.943 163.83C877.11 175.384 898.341 183.268 912.117 198.037C986.302 277.557 842.425 394.234 792.089 288.095C758.987 218.292 796.79 160.985 740.045 146.425Z" fill="#451E56"/>
<path fill-rule="evenodd" clip-rule="evenodd" d="M456.428 600.329C456.428 600.329 364.638 602.518 361.082 595.957C361.082 595.957 361.082 590.702 361.082 587.202C361.082 583.705 365.273 578.673 376.683 575.392C388.094 572.109 412.436 565.761 419.915 563.464C427.394 561.168 448.821 537.762 451.863 534.918C454.906 532.077 469.104 541.263 472.148 542.792C475.19 544.327 473.161 548.044 471.641 552.419C470.119 556.793 456.428 600.329 456.428 600.329Z" fill="#F03562"/>
<path fill-rule="evenodd" clip-rule="evenodd" d="M361.082 604.769H507.909C509.648 604.769 511.068 603.96 511.068 602.967V597.759C511.068 596.766 509.648 595.954 507.909 595.954H361.082C359.343 595.954 357.921 596.766 357.921 597.759V602.967C357.921 603.96 359.343 604.769 361.082 604.769Z" fill="#FBCDD8"/>
<path fill-rule="evenodd" clip-rule="evenodd" d="M361.082 604.772H410.98C412.721 604.772 414.142 603.96 414.142 602.967V597.759C414.142 596.766 412.721 595.954 410.98 595.954H361.082C359.341 595.954 357.92 596.766 357.92 597.759V602.967C357.92 603.96 359.341 604.772 361.082 604.772Z" fill="white"/>
<path fill-rule="evenodd" clip-rule="evenodd" d="M426.002 566.312C426.507 567.841 431.071 575.5 427.902 577.36C424.734 579.218 414.589 585.889 408.884 585.889C403.179 585.889 391.137 585.889 376.049 585.889C360.963 585.889 364.448 581.349 364.448 581.349C362.086 583.411 361.082 585.488 361.082 587.202C361.082 590.702 361.082 595.957 361.082 595.957H507.904C507.904 595.957 514.118 589.718 514.118 575.062C514.118 560.403 514.94 551.981 512.469 549.63C509.995 547.281 508.284 548.48 508.284 548.48C496.873 557.012 483.052 550.884 475.826 547.497C475.058 547.134 474.326 546.769 473.629 546.413C467.767 543.388 464.176 540.689 458.965 543.23C453.131 546.073 432.594 558.653 429.297 560.623C426.002 562.594 425.494 564.777 426.002 566.312Z" fill="#EE244D"/>
<path fill-rule="evenodd" clip-rule="evenodd" d="M361.082 589.368V595.957H507.904C507.904 595.957 514.118 589.718 514.118 575.062C514.118 560.403 514.94 551.981 512.469 549.63C512.799 554.327 509.912 559.585 504.839 559.585C499.765 559.585 486.316 559.585 475.581 559.585C464.849 559.585 462.679 564.543 462.679 564.543C462.679 564.543 457.259 573.802 453.355 580.35C449.453 586.897 442.948 591.372 438.176 591.372C433.408 591.372 375.382 591.372 367.577 591.372C364.244 591.372 362.261 590.436 361.082 589.368Z" fill="#E21E44"/>
<path fill-rule="evenodd" clip-rule="evenodd" d="M439.019 547.961C439.853 547.143 440.671 546.324 441.465 545.528L449.451 550.675C450.05 551.059 450.263 551.771 449.93 552.256C449.593 552.745 448.838 552.83 448.236 552.442L441.614 548.175L444.326 554.913C444.57 555.522 444.249 556.121 443.61 556.249C442.967 556.377 442.25 555.983 442.002 555.375L439.019 547.961ZM432.646 554.05L439.102 558.21C439.701 558.595 440.46 558.512 440.794 558.024C441.127 557.538 440.913 556.826 440.317 556.441L434.266 552.544C433.725 553.05 433.184 553.554 432.646 554.05ZM430.716 555.794C431.323 555.253 431.937 554.7 432.554 554.131L435.191 560.681C435.433 561.29 435.114 561.887 434.473 562.015C433.831 562.145 433.112 561.751 432.868 561.143L430.716 555.794ZM457.373 546.676C457.972 547.063 458.729 546.977 459.063 546.489C459.398 546.003 459.184 545.291 458.586 544.907L449.362 538.959L448.932 537.891L446.936 539.949L447.362 540.224L451.139 549.608C451.384 550.216 452.104 550.611 452.743 550.481C453.385 550.353 453.707 549.755 453.46 549.147L450.748 542.407L457.373 546.676Z" fill="white"/>
<path fill-rule="evenodd" clip-rule="evenodd" d="M568.575 313.708C568.62 313.382 568.919 313.155 569.246 313.197C569.576 313.238 569.803 313.538 569.762 313.865C569.762 313.873 569.335 316.885 569.26 317.847C569.229 318.286 569.289 318.877 569.652 319.347C569.917 319.681 570.352 319.972 571.041 320.116C571.248 320.157 571.545 320.166 571.914 320.132C573.032 320.033 574.657 319.545 576.145 318.455C577.618 317.37 578.949 315.676 579.47 313.163C579.696 312.055 579.77 310.792 579.643 309.354C579.61 309.024 579.854 308.735 580.18 308.707C580.511 308.677 580.799 308.915 580.829 309.242C580.974 310.812 580.89 312.196 580.638 313.407C580.048 316.258 578.536 318.182 576.85 319.417C575.173 320.653 573.309 321.206 572.02 321.322C571.532 321.367 571.107 321.352 570.799 321.289C569.79 321.08 569.128 320.624 568.708 320.083C568.117 319.323 568.013 318.415 568.068 317.753C568.138 316.836 568.575 313.721 568.575 313.708Z" fill="#CC3C49"/>
<path fill-rule="evenodd" clip-rule="evenodd" d="M579.845 315.155C579.523 315.236 579.2 315.038 579.118 314.72C579.039 314.398 579.233 314.071 579.555 313.993C579.559 313.993 581.654 313.485 582.332 310.812C582.414 310.49 582.74 310.301 583.06 310.379C583.381 310.462 583.576 310.788 583.494 311.106C582.638 314.481 579.854 315.155 579.845 315.155Z" fill="#CC3C49"/>
<path fill-rule="evenodd" clip-rule="evenodd" d="M578.106 324.33C577.776 324.334 577.507 324.07 577.503 323.738C577.499 323.408 577.768 323.139 578.093 323.136L591.359 323.028C591.689 323.025 591.958 323.293 591.958 323.619C591.961 323.949 591.697 324.218 591.367 324.222L578.106 324.33Z" fill="#EA5153"/>
<path fill-rule="evenodd" clip-rule="evenodd" d="M586.32 323.111C586.628 323.227 586.781 323.573 586.666 323.879C586.545 324.189 586.203 324.342 585.893 324.226C585.885 324.222 582.893 323.139 581.964 319.921C581.873 319.608 582.06 319.273 582.372 319.187C582.691 319.095 583.021 319.276 583.114 319.595C583.869 322.228 586.315 323.108 586.32 323.111Z" fill="#EA5153"/>
<path fill-rule="evenodd" clip-rule="evenodd" d="M553.57 336.596C553.24 336.574 552.993 336.285 553.018 335.955C553.041 335.625 553.327 335.376 553.657 335.401L567.955 336.508C568.281 336.533 568.531 336.823 568.504 337.153C568.484 337.48 568.196 337.727 567.865 337.703L553.57 336.596Z" fill="#EA5153"/>
<path fill-rule="evenodd" clip-rule="evenodd" d="M564.183 345.275C563.878 345.151 563.732 344.801 563.861 344.493C563.984 344.188 564.336 344.044 564.641 344.172L572.699 347.51C573.004 347.638 573.149 347.99 573.024 348.295C572.898 348.6 572.546 348.74 572.241 348.618L564.183 345.275Z" fill="#EA5153"/>
<path fill-rule="evenodd" clip-rule="evenodd" d="M580.2 357.862C579.87 357.874 579.593 357.621 579.581 357.288C579.568 356.964 579.825 356.682 580.15 356.672L583.326 356.537C583.653 356.525 583.935 356.781 583.947 357.111C583.96 357.441 583.703 357.718 583.373 357.73L580.2 357.862Z" fill="#EA5153"/>
<path fill-rule="evenodd" clip-rule="evenodd" d="M539.702 306.048L540.041 305.685C540.305 305.4 540.756 305.385 541.041 305.649L551.493 315.365C551.779 315.629 551.793 316.076 551.529 316.361L551.191 316.725C550.927 317.008 550.481 317.026 550.196 316.761L539.739 307.044C539.455 306.78 539.442 306.334 539.702 306.048Z" fill="#451E56"/>
<path fill-rule="evenodd" clip-rule="evenodd" d="M780.798 525.738C781.191 525.87 781.398 526.298 781.266 526.686C781.129 527.077 780.705 527.284 780.317 527.152C778.296 526.45 776.193 525.516 774.006 524.3C771.954 523.158 769.832 521.764 767.641 520.1C741.201 499.976 634.732 415.04 633.212 413.829C632.187 413.256 618.921 406.111 606.707 414.627C593.685 423.703 488.95 539.897 488.648 540.23C488.371 540.535 487.897 540.564 487.594 540.285C487.289 540.007 487.264 539.536 487.541 539.231C487.843 538.898 592.702 422.563 605.851 413.396C618.903 404.303 633.038 412.015 633.962 412.541C634.014 412.566 634.063 412.592 634.113 412.63C634.422 412.88 741.996 498.695 768.546 518.912C770.681 520.537 772.747 521.889 774.733 522.992C776.846 524.168 778.87 525.069 780.798 525.738Z" fill="#2B1535"/>
<path fill-rule="evenodd" clip-rule="evenodd" d="M467.023 524.902C466.677 524.673 466.58 524.212 466.807 523.863C467.032 523.518 467.495 523.421 467.844 523.643C467.916 523.696 493.485 540.423 500.376 551.957C500.588 552.311 500.473 552.769 500.118 552.98C499.765 553.194 499.307 553.079 499.094 552.724C492.384 541.491 467.096 524.944 467.023 524.902Z" fill="#2B1535"/>
<path fill-rule="evenodd" clip-rule="evenodd" d="M611.899 459.525C611.738 459.903 611.295 460.082 610.92 459.919C610.54 459.761 610.363 459.32 610.523 458.942C610.532 458.918 614.29 450.49 614.29 441.426C614.29 441.007 614.625 440.676 615.043 440.676C615.456 440.676 615.79 441.007 615.79 441.426C615.79 450.798 611.907 459.501 611.899 459.525Z" fill="#2B1535"/>
<path fill-rule="evenodd" clip-rule="evenodd" d="M767.344 393.776C767.132 390.224 764.947 348.741 775.659 309.792C775.767 309.392 775.531 308.982 775.135 308.876C774.738 308.768 774.327 308.999 774.217 309.4C764.014 346.502 765.44 385.865 765.798 392.978C764.452 392.651 762.357 392.753 761.691 396.156C753.798 388.116 742.288 383.949 728.821 379.074C710.193 372.326 687.786 364.21 666.303 342.581C658.549 334.779 641.706 342.804 641.659 342.825C641.284 343.002 641.124 343.446 641.296 343.822C641.474 344.192 641.915 344.355 642.292 344.18C642.338 344.16 658.239 336.584 665.241 343.636C686.959 365.499 709.54 373.677 728.312 380.479C742.205 385.51 753.992 389.778 761.643 398.282C761.829 398.57 763.238 400.765 763.903 403.685C763.993 404.089 764.389 404.342 764.796 404.253C765.196 404.162 765.453 403.762 765.36 403.362C764.716 400.521 763.427 398.31 763.005 397.634C763.296 393.568 765.647 394.442 766.141 394.671C766.572 395.173 768.179 397.109 768.521 398.365C768.629 398.762 769.037 398.997 769.435 398.89C769.833 398.782 770.066 398.371 769.96 397.974C769.541 396.439 767.869 394.391 767.344 393.776ZM626.177 381.991C626.275 381.588 626.681 381.347 627.081 381.447C627.481 381.549 627.725 381.952 627.627 382.354C627.61 382.418 621.43 404.807 657.801 425.145C676.272 435.472 695.267 442.119 712.303 448.076C729.266 454.015 744.295 459.272 755.038 466.829C765.166 473.959 774.371 477.04 782.571 476.851C791.429 476.648 799.151 472.611 805.619 465.739C812.344 458.591 827.764 428.309 839.908 396.192C848.84 372.574 855.983 347.999 856.567 330.973C856.578 330.564 856.925 330.237 857.335 330.249C857.746 330.262 858.07 330.609 858.057 331.022C857.471 348.234 850.286 372.976 841.31 396.718C829.101 428.994 813.535 459.508 806.706 466.762C799.964 473.925 791.892 478.132 782.6 478.341C774.089 478.54 764.58 475.376 754.173 468.053C743.597 460.61 728.663 455.387 711.812 449.49C694.718 443.506 675.66 436.841 657.078 426.449C619.683 405.543 626.155 382.062 626.177 381.991Z" fill="#E19824"/>
<path fill-rule="evenodd" clip-rule="evenodd" d="M722.615 169.91C717.83 171.495 715.236 176.661 716.823 181.442C718.406 186.227 723.569 188.818 728.353 187.236C733.137 185.648 735.732 180.484 734.145 175.701C732.559 170.918 727.396 168.325 722.615 169.91Z" fill="#EA5153"/>
<path fill-rule="evenodd" clip-rule="evenodd" d="M709.544 153.444C706.29 153.095 702.719 153.941 700.551 156.556C700.051 157.161 699.141 157.247 698.54 156.744C697.932 156.242 697.849 155.336 698.348 154.728C701.046 151.473 705.775 150.037 709.89 150.607C710.675 150.702 711.23 151.42 711.135 152.202C711.036 152.986 710.317 153.542 709.544 153.444Z" fill="#2B1535"/>
<path fill-rule="evenodd" clip-rule="evenodd" d="M707.078 161.279C707.847 161.006 708.651 161.034 709.361 161.295C709.577 161.153 709.92 160.851 709.99 160.338C710.031 160.045 710.304 159.839 710.597 159.88C710.891 159.922 711.097 160.196 711.055 160.488C710.974 161.087 710.675 161.528 710.37 161.833L710.408 161.855C710.799 161.605 711.221 161.204 711.445 160.577C711.548 160.297 711.853 160.15 712.13 160.253C712.411 160.35 712.555 160.66 712.457 160.94C712.205 161.642 711.775 162.147 711.329 162.504L711.337 162.51C711.804 162.312 712.288 161.994 712.688 161.484C712.871 161.25 713.207 161.209 713.445 161.392C713.675 161.575 713.717 161.914 713.529 162.149C713.123 162.674 712.647 163.04 712.167 163.299L711.499 163.649L712.854 167.496C713.472 169.251 712.544 171.19 710.792 171.807C709.039 172.424 707.098 171.497 706.484 169.744L705.017 165.588C704.397 163.835 705.326 161.896 707.078 161.279Z" fill="#2B1535"/>
<path fill-rule="evenodd" clip-rule="evenodd" d="M680.712 119.119C680.651 118.709 680.928 118.327 681.338 118.263C681.741 118.199 682.124 118.476 682.187 118.883C682.212 119.012 688.97 164.587 738.693 147.044C739.085 146.908 739.512 147.113 739.648 147.501C739.789 147.892 739.583 148.32 739.195 148.456C687.761 166.602 680.737 119.252 680.712 119.119Z" fill="#451E56"/>
<path fill-rule="evenodd" clip-rule="evenodd" d="M738.083 150.661C739.335 125.437 772.88 146.217 753.893 166.32C753.893 166.32 740.321 165.297 738.083 150.661Z" fill="#F89B6F"/>
<path fill-rule="evenodd" clip-rule="evenodd" d="M738.83 150.696C738.81 151.107 738.458 151.426 738.045 151.406C737.637 151.389 737.315 151.037 737.335 150.625C737.657 144.124 740.081 140.497 743.255 139.041C746.014 137.777 749.306 138.176 752.265 139.774C755.169 141.34 757.769 144.064 759.222 147.483C761.502 152.842 760.986 159.897 754.434 166.83C754.153 167.13 753.677 167.146 753.38 166.861C753.08 166.58 753.062 166.106 753.346 165.806C759.406 159.389 759.916 152.939 757.845 148.07C756.533 144.973 754.182 142.507 751.558 141.093C748.993 139.71 746.182 139.343 743.874 140.398C741.181 141.634 739.119 144.846 738.83 150.696Z" fill="#EA5153"/>
<path fill-rule="evenodd" clip-rule="evenodd" d="M798.124 103.571C797.965 103.189 798.146 102.751 798.525 102.593C798.91 102.435 799.349 102.615 799.505 102.997C799.548 103.097 813.889 137.478 835.893 151.232C843.022 155.688 851.504 159.67 859.96 163.647C877.973 172.105 895.895 180.524 900.843 193.442C900.989 193.828 900.793 194.261 900.41 194.408C900.022 194.554 899.587 194.36 899.443 193.973C894.708 181.618 877.064 173.327 859.328 164.997C850.816 160.998 842.279 156.986 835.104 152.502C812.691 138.497 798.167 103.671 798.124 103.571Z" fill="#451E56"/>
<path fill-rule="evenodd" clip-rule="evenodd" d="M682.778 99.93C684.165 97.8514 685.889 95.7916 687.98 93.76C691.408 90.4334 695.775 86.9065 700.834 83.5877C730.716 117.234 774.652 113.064 801.617 106.081C802.451 107.831 803.24 109.595 804.004 111.366C728.516 139.565 695.568 116.053 682.778 99.93Z" fill="#562168"/>
<path fill-rule="evenodd" clip-rule="evenodd" d="M531.118 242.748H575.974C579.477 242.748 582.349 245.615 582.349 249.118V276.645C582.349 280.151 579.477 283.018 575.974 283.018H561.064L555.193 292.516C554.941 292.921 554.533 293.147 554.055 293.147C553.579 293.147 553.169 292.921 552.918 292.516L547.043 283.018H531.118C527.614 283.018 524.742 280.151 524.742 276.645V249.118C524.742 245.615 527.614 242.748 531.118 242.748Z" fill="#F03562"/>
<path fill-rule="evenodd" clip-rule="evenodd" d="M542.808 255.19C545.173 252.828 549.036 252.828 551.397 255.19L553.545 257.337L555.695 255.19C558.052 252.828 561.92 252.828 564.283 255.19C566.645 257.553 566.645 261.416 564.283 263.779L562.136 265.927L553.545 274.516L544.957 265.927L542.808 263.779C540.446 261.416 540.446 257.553 542.808 255.19Z" fill="white"/>
<path fill-rule="evenodd" clip-rule="evenodd" d="M575.594 176.369H633.423C637.937 176.369 641.635 180.066 641.635 184.583V220.069C641.635 224.584 637.937 228.283 633.423 228.283H614.2L606.632 240.524C606.309 241.048 605.781 241.344 605.164 241.344C604.55 241.344 604.021 241.048 603.699 240.524L596.126 228.283H575.594C571.076 228.283 567.381 224.584 567.381 220.069V184.583C567.381 180.066 571.076 176.369 575.594 176.369Z" fill="#F03562"/>
<path fill-rule="evenodd" clip-rule="evenodd" d="M590.665 192.409C593.71 189.363 598.696 189.363 601.741 192.409L604.508 195.178L607.276 192.409C610.321 189.363 615.304 189.363 618.347 192.409C621.393 195.453 621.393 200.436 618.347 203.481L615.581 206.249L604.508 217.322L593.431 206.249L590.665 203.481C587.621 200.436 587.621 195.453 590.665 192.409Z" fill="white"/>
<path fill-rule="evenodd" clip-rule="evenodd" d="M476.82 194.402H519.129C522.434 194.402 525.135 197.106 525.135 200.411V226.372C525.135 229.676 522.434 232.381 519.129 232.381H505.065L499.527 241.339C499.293 241.721 498.903 241.937 498.453 241.937C498.005 241.937 497.619 241.721 497.381 241.339L491.843 232.381H476.82C473.515 232.381 470.809 229.676 470.809 226.372V200.411C470.809 197.106 473.515 194.402 476.82 194.402Z" fill="#F03562"/>
<path fill-rule="evenodd" clip-rule="evenodd" d="M487.846 206.137C490.074 203.909 493.722 203.909 495.947 206.137L497.974 208.16L499.998 206.137C502.227 203.909 505.872 203.909 508.098 206.137C510.33 208.364 510.33 212.009 508.098 214.237L506.074 216.263L497.974 224.365L489.873 216.263L487.846 214.237C485.62 212.009 485.62 208.364 487.846 206.137Z" fill="white"/>
<path fill-rule="evenodd" clip-rule="evenodd" d="M489.916 67.4926H590.111C597.936 67.4926 604.343 73.8956 604.343 81.725V143.206C604.343 151.034 597.936 157.44 590.111 157.44H556.809L543.693 178.649C543.13 179.556 542.218 180.068 541.153 180.068C540.086 180.068 539.168 179.556 538.608 178.649L525.494 157.44H489.916C482.087 157.44 475.682 151.034 475.682 143.206V81.725C475.682 73.8956 482.087 67.4926 489.916 67.4926Z" fill="#F03562"/>
<path fill-rule="evenodd" clip-rule="evenodd" d="M516.031 95.2818C521.306 90.0064 529.941 90.0064 535.216 95.2818L540.011 100.079L544.81 95.2818C550.085 90.0064 558.718 90.0064 563.994 95.2818C569.274 100.559 569.274 109.192 563.994 114.467L559.197 119.266L540.011 138.451L520.827 119.266L516.031 114.467C510.755 109.192 510.755 100.559 516.031 95.2818Z" fill="white"/>
<path fill-rule="evenodd" clip-rule="evenodd" d="M82.5837 388.311C49.2968 373.694 44.0214 411.502 58.8086 441.331C68.8144 461.511 104.872 513.184 129.155 557.14H156.869C147.393 490.641 116.99 403.423 82.5837 388.311Z" fill="#88BCD0"/>
<path fill-rule="evenodd" clip-rule="evenodd" d="M146.972 557.14C123.34 476.574 68.9129 400.65 68.696 400.343C68.2261 399.685 67.3129 399.531 66.6556 400.002C65.9987 400.471 65.8478 401.394 66.3165 402.054C66.532 402.358 120.384 477.491 143.963 557.14H146.972Z" fill="#6293AC"/>
<path fill-rule="evenodd" clip-rule="evenodd" d="M152.926 268.844C186.49 235.399 209.413 277.801 204.74 320.401C200.306 360.788 161.558 499.397 166.192 557.685L152.967 557.703C122.889 482.988 109.957 311.663 152.926 268.844Z" fill="#6293AC"/>
<path fill-rule="evenodd" clip-rule="evenodd" d="M157.829 557.694C129.923 439.914 174.731 276.998 174.882 276.446C175.155 275.433 176.186 274.813 177.182 275.057C178.178 275.301 178.762 276.318 178.49 277.33C178.34 277.883 133.476 440.984 161.655 557.691L157.829 557.694Z" fill="#88BCD0"/>
<path fill-rule="evenodd" clip-rule="evenodd" d="M235.543 342.804C270.728 325.725 277.48 365.912 262.528 398.435C250.138 425.392 197.303 504.557 176.306 555.873L158.863 555.265C160.806 483.398 194.009 362.96 235.543 342.804Z" fill="#88BCD0"/>
<path fill-rule="evenodd" clip-rule="evenodd" d="M165.235 555.489C181.217 458.755 250.502 355.434 250.753 355.057C251.234 354.33 252.209 354.13 252.925 354.602C253.643 355.083 253.831 356.057 253.347 356.781C253.099 357.156 184.259 459.81 168.335 555.595L165.235 555.489Z" fill="#6293AC"/>
<path fill-rule="evenodd" clip-rule="evenodd" d="M173.902 561.454H132.176L121.283 571.284L130.184 605.56H153.039H175.895L184.796 571.284L173.902 561.454Z" fill="#451E56"/>
<path fill-rule="evenodd" clip-rule="evenodd" d="M170.585 561.454H132.176L121.283 571.284L124.618 584.132L184.043 574.183L184.796 571.284L174.336 561.845L170.585 561.454Z" fill="#2B1535"/>
<path fill-rule="evenodd" clip-rule="evenodd" d="M184.796 548.695H121.283C119.385 548.695 117.828 550.249 117.828 552.15V567.832C117.828 569.729 119.385 571.284 121.283 571.284H184.796C186.696 571.284 188.249 569.729 188.249 567.832V552.15C188.249 550.249 186.696 548.695 184.796 548.695Z" fill="#451E56"/>
<path fill-rule="evenodd" clip-rule="evenodd" d="M64.9039 681.821C71.1838 681.821 76.3205 676.686 76.3205 670.405V669.456C76.3205 663.175 71.1838 658.04 64.9039 658.04C58.6266 658.04 53.4892 663.175 53.4892 669.456V670.405C53.4892 676.686 58.6266 681.821 64.9039 681.821Z" fill="#2F3640"/>
<path d="M55.9874 604.772H934.607V681.821H94.5123C87.9732 681.821 82.6223 676.469 82.6223 669.93C82.6223 663.392 87.9732 658.04 94.5123 658.04H111.16C116.391 658.04 120.672 653.761 120.672 648.531V648.528C120.672 643.295 116.391 639.016 111.16 639.016H55.9874C46.5697 639.016 38.8677 631.312 38.8677 621.895C38.8677 612.477 46.5759 604.772 55.9874 604.772Z" fill="#2F3640"/>
<path fill-rule="evenodd" clip-rule="evenodd" d="M870.735 103.46C867.26 104.269 863.73 105.442 860.544 107.09C861.208 107.88 861.908 108.646 862.638 109.378C866.795 113.531 871.9 116.573 877.497 118.234C875.912 116.254 874.631 113.97 873.611 111.73C872.405 109.081 871.467 106.285 870.735 103.46ZM914.494 107.09C911.308 105.445 907.776 104.27 904.306 103.46C903.574 106.285 902.637 109.081 901.43 111.73C900.41 113.973 899.124 116.254 897.539 118.234C903.136 116.573 908.243 113.531 912.398 109.378C913.13 108.646 913.828 107.88 914.494 107.09ZM904.764 67.4223C908.465 66.5168 912.287 65.1905 915.609 63.3012C914.625 62.0015 913.551 60.7691 912.398 59.6164C908.243 55.4608 903.136 52.4189 897.543 50.7563C899.124 52.7411 900.41 55.0198 901.43 57.2595C902.902 60.4923 903.979 63.9518 904.764 67.4223ZM859.433 63.3012C862.754 65.1905 866.571 66.5168 870.272 67.4223C871.062 63.9518 872.136 60.4923 873.611 57.2595C874.631 55.0198 875.912 52.7411 877.497 50.7563C871.9 52.4189 866.795 55.4608 862.638 59.6164C861.485 60.7691 860.415 62.0015 859.433 63.3012ZM885.418 69.3757V49.6912C881.678 51.0472 878.919 55.7189 877.424 59.0002C876.08 61.9499 875.101 65.117 874.379 68.2903C878.018 68.9316 881.725 69.2803 885.418 69.3757ZM885.418 119.3V101.622C881.881 101.715 878.34 102.037 874.85 102.626C875.511 105.141 876.349 107.631 877.427 109.993C878.919 113.277 881.678 117.943 885.418 119.3ZM889.623 101.622V119.3C893.361 117.943 896.118 113.276 897.614 109.993C898.687 107.631 899.525 105.141 900.186 102.626C896.7 102.037 893.155 101.715 889.623 101.622ZM889.623 49.6912V69.3757C893.317 69.2803 897.022 68.9316 900.657 68.2903C899.939 65.117 898.956 61.9499 897.614 59.0002C896.118 55.7189 893.361 51.0472 889.623 49.6912ZM906.564 82.3929H922.644C922.319 76.8907 920.714 71.5685 917.943 66.8061C914.162 69.0067 909.805 70.5269 905.57 71.5513C906.156 75.1313 906.478 78.766 906.564 82.3929ZM901.455 72.4115C897.556 73.1075 893.582 73.4797 889.623 73.5782V82.3929H902.363C902.277 79.0553 901.988 75.71 901.455 72.4115ZM873.581 72.4115C873.054 75.71 872.76 79.0522 872.676 82.3929H885.418V73.5782C881.456 73.4797 877.487 73.1075 873.581 72.4115ZM852.397 82.3929H868.472C868.559 78.766 868.884 75.1313 869.468 71.5513C865.225 70.5253 860.863 69.002 857.098 66.8061C854.322 71.5685 852.719 76.8907 852.397 82.3929ZM868.472 86.597H852.397C852.757 92.6935 854.68 98.5584 858.015 103.676C861.674 101.696 865.777 100.307 869.809 99.3639C869.005 95.1646 868.578 90.8698 868.472 86.597ZM885.418 86.597H872.676C872.776 90.5868 873.173 94.6031 873.924 98.5256C877.716 97.8687 881.572 97.5105 885.418 97.4183V86.597ZM902.363 86.597H889.623V97.4183C893.469 97.5105 897.323 97.8687 901.117 98.5256C901.863 94.6015 902.26 90.5868 902.363 86.597ZM922.644 86.597H906.569C906.463 90.8698 906.036 95.1646 905.227 99.3639C909.259 100.307 913.362 101.696 917.021 103.676C920.359 98.5584 922.284 92.6935 922.644 86.597ZM887.521 45.1088C898.001 45.1088 907.961 49.2346 915.368 56.6448C922.78 64.0535 926.907 74.0161 926.907 84.4965C926.907 94.9769 922.78 104.936 915.368 112.347C907.961 119.758 898.001 123.886 887.521 123.886C877.039 123.886 867.078 119.758 859.668 112.347C852.258 104.936 848.129 94.9769 848.129 84.4965C848.129 74.0161 852.258 64.0535 859.668 56.6448C867.078 49.2346 877.039 45.1088 887.521 45.1088Z" fill="white"/>
<path fill-rule="evenodd" clip-rule="evenodd" d="M117.187 211.989H107.432C107.276 211.989 107.143 212.034 107.059 212.109L106.996 212.175C106.883 212.289 106.815 212.444 106.815 212.607V243.411C106.815 243.577 106.883 243.73 106.996 243.848C107.115 243.962 107.268 244.029 107.432 244.029H117.187C117.342 244.029 117.472 243.988 117.555 243.918L117.62 243.848C117.736 243.732 117.805 243.574 117.805 243.411V212.607C117.805 212.443 117.735 212.286 117.619 212.17C117.503 212.056 117.35 211.989 117.187 211.989ZM123.257 238.009C125.716 240.488 129.845 243.743 133.354 243.743H154.814C157.934 243.743 160.474 241.614 161.067 238.536C161.237 237.718 161.769 237.025 162.517 236.65C164.498 235.66 164.558 232.402 164.271 230.585C164.046 229.539 164.461 228.469 165.325 227.831C167.914 225.926 167.036 221.784 165.929 219.326C165.594 218.711 165.518 218.01 165.699 217.335C165.962 216.362 166.161 215.317 166.161 214.307C166.161 213.417 166.001 212.433 165.391 211.742C164.88 211.157 164.106 210.819 163.367 210.62C162.543 210.397 161.656 210.317 160.804 210.317H149.097C146.486 210.317 144.369 209.457 143.306 206.893C142.083 203.941 143.225 199.502 144.13 196.609C144.563 195.221 144.795 193.781 144.798 192.326C144.801 190.273 144.321 188.158 143.301 186.366C142.987 185.805 142.105 184.475 141.431 184.19H139.61C139.544 187.744 139.299 191.421 138.345 194.829C137.067 199.38 134.63 202.973 130.394 205.253C126.355 207.428 123.947 212.707 123.257 217.095V238.009ZM120.814 207.749C122.458 204.737 124.743 202.109 127.811 200.458C130.684 198.911 132.239 196.435 133.099 193.359C134.136 189.657 134.18 185.29 134.18 181.463C134.18 179.958 135.401 178.737 136.906 178.737H141.575C142.05 178.737 142.524 178.82 142.977 178.96C145.134 179.636 146.963 181.777 148.04 183.677C149.517 186.286 150.242 189.338 150.247 192.326C150.249 194.333 149.928 196.318 149.332 198.229C148.916 199.555 147.77 203.429 148.301 204.754C148.437 204.848 148.939 204.865 149.097 204.865H160.804C162.138 204.865 163.491 205.01 164.78 205.358C166.589 205.844 168.238 206.734 169.486 208.154C171.004 209.884 171.614 212.033 171.614 214.307C171.614 215.486 171.45 216.672 171.192 217.823C172.88 222.171 173.217 227.577 169.791 231.135C170.005 234.73 169.117 238.65 166.067 240.842C164.404 245.912 160.33 249.197 154.814 249.197H133.354C129.69 249.197 126.025 247.256 123.044 245.005C122.766 246.02 122.22 246.957 121.441 247.736L121.347 247.823C120.22 248.888 118.739 249.483 117.187 249.483H107.432C105.82 249.483 104.283 248.843 103.141 247.701C102.002 246.561 101.363 245.025 101.363 243.411V212.607C101.363 210.994 102.002 209.457 103.181 208.279L103.274 208.199C104.398 207.133 105.883 206.535 107.432 206.535H117.187C118.507 206.535 119.772 206.969 120.814 207.749Z" fill="white"/>
<path fill-rule="evenodd" clip-rule="evenodd" d="M282.369 92.637H291.228C293.359 92.637 295.1 90.8963 295.1 88.7615V79.9014C295.1 77.7713 293.359 76.0274 291.228 76.0274H282.369C280.236 76.0274 278.493 77.7713 278.493 79.9014V88.7615C278.493 90.8963 280.236 92.637 282.369 92.637Z" fill="white"/>
<path fill-rule="evenodd" clip-rule="evenodd" d="M313.092 92.637H321.951C324.084 92.637 325.825 90.8963 325.825 88.7615V79.9014C325.825 77.7713 324.084 76.0274 321.951 76.0274H313.092C310.959 76.0274 309.217 77.7713 309.217 79.9014V88.7615C309.217 90.8963 310.959 92.637 313.092 92.637Z" fill="#C3B3DC"/>
<path fill-rule="evenodd" clip-rule="evenodd" d="M343.815 92.637H352.675C354.807 92.637 356.549 90.8963 356.549 88.7615V79.9014C356.549 77.7713 354.807 76.0274 352.675 76.0274H343.815C341.682 76.0274 339.941 77.7713 339.941 79.9014V88.7615C339.941 90.8963 341.682 92.637 343.815 92.637Z" fill="#C3B3DC"/>
<path fill-rule="evenodd" clip-rule="evenodd" d="M374.54 92.637H383.399C385.534 92.637 387.276 90.8963 387.276 88.7615V79.9014C387.276 77.7713 385.534 76.0274 383.399 76.0274H374.54C372.41 76.0274 370.665 77.7713 370.665 79.9014V88.7615C370.665 90.8963 372.41 92.637 374.54 92.637Z" fill="#C3B3DC"/>
<path fill-rule="evenodd" clip-rule="evenodd" d="M405.268 92.637H414.127C416.258 92.637 418.002 90.8963 418.002 88.7615V79.9014C418.002 77.7713 416.258 76.0274 414.127 76.0274H405.268C403.135 76.0274 401.393 77.7713 401.393 79.9014V88.7615C401.393 90.8963 403.135 92.637 405.268 92.637Z" fill="white"/>
<path fill-rule="evenodd" clip-rule="evenodd" d="M435.991 92.637H444.85C446.983 92.637 448.725 90.8963 448.725 88.7615V79.9014C448.725 77.7713 446.983 76.0274 444.85 76.0274H435.991C433.86 76.0274 432.116 77.7713 432.116 79.9014V88.7615C432.116 90.8963 433.86 92.637 435.991 92.637Z" fill="#C3B3DC"/>
<path fill-rule="evenodd" clip-rule="evenodd" d="M344.929 59.1393H353.789C355.922 59.1393 357.663 57.397 357.663 55.2637V46.4037C357.663 44.2719 355.922 42.5312 353.789 42.5312H344.929C342.796 42.5312 341.055 44.2719 341.055 46.4037V55.2637C341.055 57.397 342.796 59.1393 344.929 59.1393Z" fill="#C3B3DC"/>
<path fill-rule="evenodd" clip-rule="evenodd" d="M375.654 59.1393H384.512C386.647 59.1393 388.388 57.397 388.388 55.2637V46.4037C388.388 44.2719 386.647 42.5312 384.512 42.5312H375.654C373.522 42.5312 371.778 44.2719 371.778 46.4037V55.2637C371.778 57.397 373.522 59.1393 375.654 59.1393Z" fill="white"/>
<path fill-rule="evenodd" clip-rule="evenodd" d="M406.377 59.1393H415.235C417.37 59.1393 419.111 57.397 419.111 55.2637V46.4037C419.111 44.2719 417.37 42.5312 415.235 42.5312H406.377C404.245 42.5312 402.505 44.2719 402.505 46.4037V55.2637C402.505 57.397 404.245 59.1393 406.377 59.1393Z" fill="#C3B3DC"/>
<path fill-rule="evenodd" clip-rule="evenodd" d="M374.54 128.62H383.399C385.534 128.62 387.274 126.879 387.274 124.748V115.886C387.274 113.753 385.534 112.012 383.399 112.012H374.54C372.408 112.012 370.665 113.753 370.665 115.886V124.748C370.665 126.879 372.408 128.62 374.54 128.62Z" fill="white"/>
<path fill-rule="evenodd" clip-rule="evenodd" d="M405.268 128.62H414.127C416.258 128.62 418.002 126.879 418.002 124.748V115.886C418.002 113.753 416.258 112.012 414.127 112.012H405.268C403.135 112.012 401.393 113.753 401.393 115.886V124.748C401.393 126.879 403.135 128.62 405.268 128.62Z" fill="#C3B3DC"/>
<path fill-rule="evenodd" clip-rule="evenodd" d="M584.182 542.128C587.892 538.419 593.957 538.422 597.667 542.128L598.58 543.041L599.497 542.128C603.202 538.422 609.267 538.419 612.977 542.128C616.683 545.833 616.683 551.903 612.977 555.608L612.06 556.524L598.58 570.004L585.1 556.524L584.182 555.608C580.477 551.903 580.477 545.833 584.182 542.128Z" fill="#C3B3DC"/>
<path fill-rule="evenodd" clip-rule="evenodd" d="M353.334 268.737C360.728 268.737 366.756 262.705 366.756 255.313C366.756 247.92 360.728 241.89 353.334 241.89C345.941 241.89 339.912 247.92 339.912 255.313C339.912 262.705 345.941 268.737 353.334 268.737Z" fill="white"/>
<path fill-rule="evenodd" clip-rule="evenodd" d="M353.334 272.993C363.803 272.993 372.369 281.556 372.369 292.025V300.208V305.202V310.59C372.369 311.763 371.411 312.722 370.239 312.722H336.43C335.259 312.722 334.302 311.763 334.302 310.59V305.202V300.208V292.025C334.302 281.556 342.866 272.993 353.334 272.993Z" fill="white"/>
<path fill-rule="evenodd" clip-rule="evenodd" d="M779.781 32.7788C783.488 29.0737 789.556 29.0737 793.261 32.7788L794.179 33.6969L795.091 32.7788C798.803 29.0737 804.866 29.0737 808.576 32.7788C812.281 36.4902 812.281 42.5554 808.576 46.2652L807.659 47.1786L794.179 60.6587L780.695 47.1786L779.781 46.2652C776.073 42.5554 776.073 36.4902 779.781 32.7788Z" fill="#C3B3DC"/>
<path fill-rule="evenodd" clip-rule="evenodd" d="M621.677 111.632C625.382 107.925 631.452 107.925 635.157 111.632L636.075 112.548L636.987 111.632C640.697 107.925 646.762 107.925 650.472 111.632C654.177 115.34 654.177 121.407 650.472 125.112L649.554 126.027L636.075 139.51L622.591 126.027L621.677 125.112C617.967 121.407 617.967 115.34 621.677 111.632Z" fill="#C3B3DC"/>
<path fill-rule="evenodd" clip-rule="evenodd" d="M454.304 168.058C456.416 165.948 459.869 165.948 461.982 168.058L462.501 168.579L463.022 168.058C465.133 165.948 468.585 165.948 470.698 168.058C472.806 170.168 472.806 173.622 470.698 175.734L470.176 176.255L462.501 183.928L454.825 176.255L454.304 175.734C452.194 173.622 452.194 170.168 454.304 168.058Z" fill="#C3B3DC"/>
<path fill-rule="evenodd" clip-rule="evenodd" d="M610.709 271.202C614.788 267.126 621.458 267.126 625.537 271.202L626.54 272.208L627.548 271.202C631.624 267.126 638.293 267.126 642.37 271.202C646.448 275.276 646.448 281.948 642.37 286.026L641.363 287.03L626.54 301.856L611.718 287.03L610.709 286.026C606.636 281.948 606.636 275.276 610.709 271.202Z" fill="#C3B3DC"/>
<path fill-rule="evenodd" clip-rule="evenodd" d="M230.543 514.265H239.403C241.536 514.265 243.277 512.524 243.277 510.392V501.531C243.277 499.397 241.536 497.66 239.403 497.66H230.543C228.411 497.66 226.669 499.397 226.669 501.531V510.392C226.669 512.524 228.411 514.265 230.543 514.265Z" fill="white"/>
<path fill-rule="evenodd" clip-rule="evenodd" d="M261.269 514.265H270.126C272.259 514.265 274.001 512.524 274.001 510.392V501.531C274.001 499.397 272.259 497.66 270.126 497.66H261.269C259.134 497.66 257.393 499.397 257.393 501.531V510.392C257.393 512.524 259.134 514.265 261.269 514.265Z" fill="#C3B3DC"/>
<path fill-rule="evenodd" clip-rule="evenodd" d="M291.992 514.265H300.852C302.983 514.265 304.725 512.524 304.725 510.392V501.531C304.725 499.397 302.983 497.66 300.852 497.66H291.992C289.859 497.66 288.117 499.397 288.117 501.531V510.392C288.117 512.524 289.859 514.265 291.992 514.265Z" fill="#C3B3DC"/>
<path fill-rule="evenodd" clip-rule="evenodd" d="M322.715 514.265H331.576C333.707 514.265 335.453 512.524 335.453 510.392V501.531C335.453 499.397 333.707 497.66 331.576 497.66H322.715C320.587 497.66 318.841 499.397 318.841 501.531V510.392C318.841 512.524 320.587 514.265 322.715 514.265Z" fill="#C3B3DC"/>
<path fill-rule="evenodd" clip-rule="evenodd" d="M353.442 514.265H362.303C364.435 514.265 366.176 512.524 366.176 510.392V501.531C366.176 499.397 364.435 497.66 362.303 497.66H353.442C351.31 497.66 349.569 499.397 349.569 501.531V510.392C349.569 512.524 351.31 514.265 353.442 514.265Z" fill="white"/>
<path fill-rule="evenodd" clip-rule="evenodd" d="M384.168 514.265H393.027C395.158 514.265 396.899 512.524 396.899 510.392V501.531C396.899 499.397 395.158 497.66 393.027 497.66H384.168C382.033 497.66 380.293 499.397 380.293 501.531V510.392C380.293 512.524 382.033 514.265 384.168 514.265Z" fill="#C3B3DC"/>
<path fill-rule="evenodd" clip-rule="evenodd" d="M293.106 480.767H301.966C304.096 480.767 305.838 479.026 305.838 476.898V468.036C305.838 465.903 304.096 464.159 301.966 464.159H293.106C290.973 464.159 289.23 465.903 289.23 468.036V476.898C289.23 479.026 290.973 480.767 293.106 480.767Z" fill="#C3B3DC"/>
<path fill-rule="evenodd" clip-rule="evenodd" d="M323.829 480.767H332.689C334.821 480.767 336.563 479.026 336.563 476.898V468.036C336.563 465.903 334.821 464.159 332.689 464.159H323.829C321.696 464.159 319.955 465.903 319.955 468.036V476.898C319.955 479.026 321.696 480.767 323.829 480.767Z" fill="white"/>
<path fill-rule="evenodd" clip-rule="evenodd" d="M354.554 480.767H363.412C365.546 480.767 367.288 479.026 367.288 476.898V468.036C367.288 465.903 365.546 464.159 363.412 464.159H354.554C352.421 464.159 350.678 465.903 350.678 468.036V476.898C350.678 479.026 352.421 480.767 354.554 480.767Z" fill="#C3B3DC"/>
<path fill-rule="evenodd" clip-rule="evenodd" d="M322.715 550.249H331.576C333.707 550.249 335.451 548.506 335.451 546.374V537.517C335.451 535.382 333.707 533.641 331.576 533.641H322.715C320.582 533.641 318.841 535.382 318.841 537.517V546.374C318.841 548.506 320.582 550.249 322.715 550.249Z" fill="white"/>
<path fill-rule="evenodd" clip-rule="evenodd" d="M353.442 550.249H362.303C364.435 550.249 366.176 548.506 366.176 546.374V537.517C366.176 535.382 364.435 533.641 362.303 533.641H353.442C351.31 533.641 349.569 535.382 349.569 537.517V546.374C349.569 548.506 351.31 550.249 353.442 550.249Z" fill="#C3B3DC"/>
<path fill-rule="evenodd" clip-rule="evenodd" d="M280.29 178.679C281.026 177.944 282.217 177.944 282.951 178.679C283.687 179.414 283.687 180.604 282.951 181.338L276.97 187.32C276.235 188.055 275.045 188.055 274.308 187.32C273.575 186.586 273.575 185.395 274.308 184.661L280.29 178.679ZM287.158 191.497C288.198 191.497 289.039 192.339 289.039 193.377C289.039 194.416 288.198 195.257 287.158 195.257H278.7C277.661 195.257 276.818 194.416 276.818 193.377C276.818 192.339 277.661 191.497 278.7 191.497H287.158ZM282.951 205.417C283.687 206.151 283.687 207.344 282.951 208.077C282.217 208.812 281.026 208.812 280.29 208.077L274.308 202.095C273.575 201.362 273.575 200.17 274.308 199.436C275.045 198.701 276.235 198.701 276.97 199.436L282.951 205.417ZM270.132 212.285C270.132 213.323 269.289 214.166 268.252 214.166C267.214 214.166 266.372 213.323 266.372 212.285V203.826C266.372 202.786 267.214 201.945 268.252 201.945C269.289 201.945 270.132 202.786 270.132 203.826V212.285ZM256.213 208.077C255.478 208.812 254.287 208.812 253.554 208.077C252.819 207.344 252.819 206.151 253.554 205.417L259.536 199.436C260.268 198.701 261.461 198.701 262.193 199.436C262.93 200.17 262.93 201.362 262.193 202.095L256.213 208.077ZM249.347 195.257C248.307 195.257 247.464 194.416 247.464 193.377C247.464 192.339 248.307 191.497 249.347 191.497H257.805C258.842 191.497 259.683 192.339 259.683 193.377C259.683 194.416 258.842 195.257 257.805 195.257H249.347ZM253.554 181.338C252.819 180.604 252.819 179.414 253.554 178.679C254.287 177.944 255.478 177.944 256.213 178.679L262.193 184.661C262.93 185.395 262.93 186.586 262.193 187.32C261.461 188.055 260.268 188.055 259.536 187.32L253.554 181.338ZM266.372 174.472C266.372 173.432 267.214 172.589 268.252 172.589C269.289 172.589 270.132 173.432 270.132 174.472V182.931C270.132 183.968 269.289 184.813 268.252 184.813C267.214 184.813 266.372 183.968 266.372 182.931V174.472Z" fill="white"/>
<path fill-rule="evenodd" clip-rule="evenodd" d="M67.2591 509.573C67.9921 508.843 69.1841 508.843 69.9173 509.573C70.6528 510.31 70.6528 511.498 69.9173 512.233L63.9356 518.216C63.2024 518.951 62.0105 518.951 61.2774 518.216C60.5419 517.485 60.5419 516.29 61.2774 515.554L67.2591 509.573ZM74.1266 522.395C75.164 522.395 76.007 523.238 76.007 524.273C76.007 525.315 75.164 526.158 74.1266 526.158H65.6657C64.6278 526.158 63.7865 525.315 63.7865 524.273C63.7865 523.238 64.6278 522.395 65.6657 522.395H74.1266ZM69.9173 536.314C70.6528 537.051 70.6528 538.241 69.9173 538.975C69.1841 539.708 67.9921 539.708 67.2591 538.975L61.2774 532.994C60.5419 532.257 60.5419 531.069 61.2774 530.333C62.0105 529.597 63.2024 529.597 63.9356 530.333L69.9173 536.314ZM57.1011 543.182C57.1011 544.217 56.2554 545.06 55.2182 545.06C54.1795 545.06 53.3389 544.217 53.3389 543.182V534.719C53.3389 533.684 54.1795 532.841 55.2182 532.841C56.2554 532.841 57.1011 533.684 57.1011 534.719V543.182ZM43.1783 538.975C42.4453 539.708 41.2534 539.708 40.5195 538.975C39.7846 538.241 39.7846 537.051 40.5195 536.314L46.5018 530.333C47.235 529.597 48.427 529.597 49.16 530.333C49.8956 531.069 49.8956 532.257 49.16 532.994L43.1783 538.975ZM36.3121 526.158C35.2734 526.158 34.4304 525.315 34.4304 524.273C34.4304 523.238 35.2734 522.395 36.3121 522.395H44.7705C45.8096 522.395 46.6521 523.238 46.6521 524.273C46.6521 525.315 45.8096 526.158 44.7705 526.158H36.3121ZM40.5195 512.233C39.7846 511.498 39.7846 510.31 40.5195 509.573C41.2534 508.843 42.4453 508.843 43.1783 509.573L49.16 515.554C49.8956 516.29 49.8956 517.485 49.16 518.216C48.427 518.951 47.235 518.951 46.5018 518.216L40.5195 512.233ZM53.3389 505.367C53.3389 504.332 54.1795 503.489 55.2182 503.489C56.2554 503.489 57.1011 504.332 57.1011 505.367V513.825C57.1011 514.867 56.2554 515.707 55.2182 515.707C54.1795 515.707 53.3389 514.867 53.3389 513.825V505.367Z" fill="white"/>
<path fill-rule="evenodd" clip-rule="evenodd" d="M463.852 298.585C464.588 297.853 465.779 297.853 466.513 298.585C467.248 299.32 467.248 300.508 466.513 301.245L460.531 307.226C459.797 307.962 458.605 307.962 457.87 307.226C457.137 306.492 457.137 305.302 457.87 304.565L463.852 298.585ZM470.72 311.403C471.76 311.403 472.603 312.246 472.603 313.283C472.603 314.323 471.76 315.166 470.72 315.166H462.262C461.223 315.166 460.38 314.323 460.38 313.283C460.38 312.246 461.223 311.403 462.262 311.403H470.72ZM466.513 325.326C467.248 326.056 467.248 327.251 466.513 327.986C465.779 328.718 464.588 328.718 463.852 327.986L457.87 322.004C457.137 321.269 457.137 320.074 457.87 319.344C458.605 318.608 459.797 318.608 460.531 319.344L466.513 325.326ZM453.694 332.192C453.694 333.227 452.851 334.07 451.814 334.07C450.776 334.07 449.934 333.227 449.934 332.192V323.731C449.934 322.694 450.776 321.851 451.814 321.851C452.851 321.851 453.694 322.694 453.694 323.731V332.192ZM439.773 327.986C439.041 328.718 437.848 328.718 437.116 327.986C436.379 327.251 436.379 326.056 437.116 325.326L443.097 319.344C443.83 318.608 445.022 318.608 445.755 319.344C446.49 320.074 446.49 321.269 445.755 322.004L439.773 327.986ZM432.907 315.166C431.869 315.166 431.026 314.323 431.026 313.283C431.026 312.246 431.869 311.403 432.907 311.403H441.365C442.404 311.403 443.247 312.246 443.247 313.283C443.247 314.323 442.404 315.166 441.365 315.166H432.907ZM437.116 301.245C436.379 300.508 436.379 299.32 437.116 298.585C437.848 297.853 439.041 297.853 439.773 298.585L445.755 304.565C446.49 305.302 446.49 306.492 445.755 307.226C445.022 307.962 443.83 307.962 443.097 307.226L437.116 301.245ZM449.934 294.377C449.934 293.342 450.776 292.494 451.814 292.494C452.851 292.494 453.694 293.342 453.694 294.377V302.835C453.694 303.877 452.851 304.719 451.814 304.719C450.776 304.719 449.934 303.877 449.934 302.835V294.377Z" fill="white"/>
<path fill-rule="evenodd" clip-rule="evenodd" d="M682.773 38.4179C683.508 37.6844 684.699 37.6844 685.435 38.4179C686.166 39.1545 686.166 40.3432 685.435 41.0783L679.451 47.0606C678.718 47.7957 677.528 47.7957 676.791 47.0606C676.058 46.3255 676.058 45.1337 676.791 44.4002L682.773 38.4179ZM689.639 51.238C690.681 51.238 691.519 52.0794 691.519 53.1179C691.519 54.1564 690.681 54.9994 689.639 54.9994H681.184C680.143 54.9994 679.3 54.1564 679.3 53.1179C679.3 52.0794 680.143 51.238 681.184 51.238H689.639ZM685.435 65.1576C686.166 65.8927 686.166 67.0829 685.435 67.8164C684.699 68.5515 683.508 68.5515 682.773 67.8164L676.791 61.8372C676.058 61.1006 676.058 59.9088 676.791 59.1753C677.528 58.4434 678.718 58.4434 679.451 59.1753L685.435 65.1576ZM672.615 72.0267C672.615 73.0621 671.772 73.9066 670.735 73.9066C669.694 73.9066 668.852 73.0621 668.852 72.0267V63.5654C668.852 62.5285 669.694 61.6855 670.735 61.6855C671.772 61.6855 672.615 62.5285 672.615 63.5654V72.0267ZM658.692 67.8164C657.962 68.5515 656.769 68.5515 656.034 67.8164C655.302 67.0829 655.302 65.8927 656.034 65.1576L662.014 59.1753C662.751 58.4434 663.94 58.4434 664.675 59.1753C665.411 59.9088 665.411 61.1006 664.675 61.8372L658.692 67.8164ZM651.826 54.9994C650.79 54.9994 649.947 54.1564 649.947 53.1179C649.947 52.0794 650.79 51.238 651.826 51.238H660.288C661.325 51.238 662.168 52.0794 662.168 53.1179C662.168 54.1564 661.325 54.9994 660.288 54.9994H651.826ZM656.034 41.0783C655.302 40.3432 655.302 39.1545 656.034 38.4179C656.769 37.6844 657.962 37.6844 658.692 38.4179L664.675 44.4002C665.411 45.1337 665.411 46.3255 664.675 47.0606C663.94 47.7957 662.751 47.7957 662.014 47.0606L656.034 41.0783ZM668.852 34.2123C668.852 33.1738 669.694 32.3308 670.735 32.3308C671.772 32.3308 672.615 33.1738 672.615 34.2123V42.6704C672.615 43.7089 671.772 44.5519 670.735 44.5519C669.694 44.5519 668.852 43.7089 668.852 42.6704V34.2123Z" fill="white"/>
<path fill-rule="evenodd" clip-rule="evenodd" d="M452.748 444.532C453.483 443.8 454.675 443.8 455.408 444.532C456.144 445.266 456.144 446.461 455.408 447.193L449.426 453.175C448.693 453.91 447.501 453.91 446.766 453.175C446.032 452.445 446.032 451.25 446.766 450.515L452.748 444.532ZM459.616 457.351C460.654 457.351 461.497 458.194 461.497 459.232C461.497 460.271 460.654 461.114 459.616 461.114H451.157C450.119 461.114 449.276 460.271 449.276 459.232C449.276 458.194 450.119 457.351 451.157 457.351H459.616ZM455.408 471.274C456.144 472.01 456.144 473.197 455.408 473.934C454.675 474.664 453.483 474.664 452.748 473.934L446.766 467.953C446.032 467.217 446.032 466.025 446.766 465.293C447.501 464.556 448.693 464.556 449.426 465.293L455.408 471.274ZM442.59 478.141C442.59 479.18 441.747 480.02 440.708 480.02C439.67 480.02 438.83 479.18 438.83 478.141V469.678C438.83 468.64 439.67 467.8 440.708 467.8C441.747 467.8 442.59 468.64 442.59 469.678V478.141ZM428.669 473.934C427.935 474.664 426.743 474.664 426.012 473.934C425.275 473.197 425.275 472.01 426.012 471.274L431.992 465.293C432.726 464.556 433.918 464.556 434.651 465.293C435.386 466.025 435.386 467.217 434.651 467.953L428.669 473.934ZM421.803 461.114C420.764 461.114 419.921 460.271 419.921 459.232C419.921 458.194 420.764 457.351 421.803 457.351H430.261C431.298 457.351 432.141 458.194 432.141 459.232C432.141 460.271 431.298 461.114 430.261 461.114H421.803ZM426.012 447.193C425.275 446.461 425.275 445.266 426.012 444.532C426.743 443.8 427.935 443.8 428.669 444.532L434.651 450.515C435.386 451.25 435.386 452.445 434.651 453.175C433.918 453.91 432.726 453.91 431.992 453.175L426.012 447.193ZM438.83 440.327C438.83 439.291 439.67 438.448 440.708 438.448C441.747 438.448 442.59 439.291 442.59 440.327V448.782C442.59 449.823 441.747 450.666 440.708 450.666C439.67 450.666 438.83 449.823 438.83 448.782V440.327Z" fill="#E6DAED"/>
</g>
<defs>
<clipPath id="clip0">
<rect width="927" height="682" fill="white"/>
</clipPath>
</defs>
</svg>
