<svg width="1440" height="808" viewBox="0 0 1440 808" fill="none" xmlns="http://www.w3.org/2000/svg">
<path d="M1162 617.5C1162.81 617.638 1163.67 617.78 1164.55 617.925C1180.4 619.274 1257.5 615.5 1257.5 615.5L1345.5 601.5C1326 611 1284 622.5 1255.5 625.5C1233.56 627.81 1187.31 621.659 1164.55 617.925C1163.29 617.818 1162.41 617.677 1162 617.5Z" fill="#A092CE"/>
<path d="M651.077 540C638.077 520 621.743 451.667 623.077 422C630.41 485.667 695.077 616.2 895.077 629C702.077 623 664.077 560 651.077 540Z" fill="#A092CE"/>
<path d="M308.671 38.1442C612.591 65.1749 586.052 299.789 615.268 484.239C636.37 617.465 788.5 655.278 925 628C1061.5 600.722 1111.51 613.291 1169 623C1376 657.96 1370.88 544.884 1440 574V808H0V0C0 0 4.75195 11.1135 308.671 38.1442Z" fill="#A092CE"/>
</svg>
